<svg id="Capa_1" enable-background="new 0 0 512 512" height="512" viewBox="0 0 512 512" width="512" xmlns="http://www.w3.org/2000/svg"><g><path d="m442.283 425.711c-.722 12.714-1.54 25.417-2.432 38.131-1.444 20.468-17.196 37.037-37.568 39.459-97.527 11.599-195.043 11.599-292.559 0-20.372-2.422-36.134-18.991-37.579-39.459-.892-12.714-1.699-25.417-2.432-38.131 9.627-61.278 10.062-294.959 0-339.432.733-12.714 1.54-25.417 2.432-38.131 1.445-20.457 17.207-37.027 37.579-39.448 97.515-11.6 195.031-11.6 292.558-.001 20.372 2.421 36.124 18.991 37.568 39.448.892 12.714 1.71 25.417 2.432 38.131-20.428 122.448-12.549 240.572.001 339.433z" fill="#818181"/><path d="m111.953 503.556c-.743-.074-1.487-.17-2.23-.255-20.372-2.422-36.134-18.991-37.579-39.459-.892-12.714-1.699-25.417-2.432-38.131 8.759-47.302 12.234-294.959 0-339.432.733-12.714 1.54-25.417 2.432-38.131 1.445-20.457 17.207-37.027 37.579-39.448.744-.085 1.487-.181 2.23-.255-10.42 7.467-17.419 19.331-18.375 32.831-.913 13.139-1.753 26.256-2.507 39.395-6.713 116.89-6.713 233.769 0 350.649.754 13.139 1.593 26.256 2.507 39.395.956 13.51 7.956 25.374 18.375 32.841z" fill="#454545"/><path d="m442.281 425.71c-6.72 8.93-19.13 15.33-33.85 16.59-101.62 8.73-203.24 8.73-304.87 0-4.21-.36-8.23-1.14-11.98-2.28-9.37-2.85-17.07-7.93-21.87-14.31-6.5-113.14-6.5-226.28 0-339.43 4.8-6.38 12.5-11.46 21.87-14.3 3.75-1.14 7.77-1.92 11.98-2.28 101.63-8.74 203.25-8.74 304.87 0 14.71 1.26 27.12 7.65 33.85 16.58 6.51 113.15 6.51 226.29 0 339.43z" fill="#e4f6ff"/><path d="m294.678 38.023h-77.353c-4.267 0-7.726-3.459-7.726-7.726s3.459-7.726 7.726-7.726h77.353c4.267 0 7.726 3.459 7.726 7.726s-3.459 7.726-7.726 7.726z" fill="#454545"/><path d="m91.071 431.32c.17 2.9.34 5.8.51 8.7-9.37-2.85-17.07-7.93-21.87-14.31-6.5-113.14-6.5-226.28 0-339.43 4.8-6.38 12.5-11.46 21.87-14.3-.17 2.89-.34 5.79-.51 8.69-6.71 116.89-6.71 233.77 0 350.65z" fill="#d3effb"/><path d="m333.71 121.764h-155.418c-28.979 0-52.471 23.492-52.471 52.47v133.493c0 28.979 23.492 52.47 52.471 52.47h32.612l26.303 45.558c8.353 14.467 29.235 14.467 37.588 0l26.303-45.558h32.612c28.979 0 52.471-23.491 52.471-52.47v-133.493c0-28.978-23.492-52.47-52.471-52.47z" fill="#da4a54"/><path d="m256.001 317.498c60.439-24.666 104.513-108.442 67.789-141.827-33.35-30.318-67.789 10.277-67.789 10.277s-34.439-40.595-67.789-10.277c-36.724 33.385 7.351 117.161 67.789 141.827z" fill="#f9f6f9"/></g></svg>